# xmcd CD database file
#
# Track frame offsets:
#	150
#	19311
#	39637
#	56633
#	70402
#	84835
#	104299
#	116605
#	133603
#	163863
#	182317
#	197891
#	232120
#	251795
#	270110
#	295243
#
# Disc length: 4241 seconds
#
# Revision: 0
# Processed by: cddbd v1.5.2PL0 Copyright (c) Steve Scherf et al.
# Submitted via: CDex 1.75
#
DISCID=e3108f10
DTITLE=Wynton Marsalis Septet  - United We Swing: Best of the Jazz at Lincoln Center Galas
DYEAR=2018
DGENRE=Jazz
TTITLE0=The Last Time feat. Blind Boys of Alabama
TTITLE1=It Takes A Lot To Laugh, It Takes A Train To Cry feat. Bob Dylan
TTITLE2=I'm Gonna Move To The Outskirts of Town feat. Ray Charles
TTITLE3=I'm Not Rough feat. Eric Clapton
TTITLE4=Creole Love Call feat. Audra McDonald
TTITLE5=Milk Cow Blues feat. Willie Nelson
TTITLE6=I'm Gonna Find Another You feat. John Mayer
TTITLE7=My Baby Don't Tolerate feat. Lyle Lovett
TTITLE8=The Worst Thing feat. Natalie Merchant
TTITLE9=Please Baby Don't feat. John Legend
TTITLE10=Mean Old Man feat. James Taylor
TTITLE11=Are You Gonna Go My Way feat. Lenny Kravitz
TTITLE12=Fool's Paradise feat. Jimmy Buffett
TTITLE13=Empty Bed Blues feat. Carrie Smith
TTITLE14=I Wish I Knew How It Would Feel To Be Free feat. Susan Tedeschi and Derek Trucks
TTITLE15=What Have You Done?
EXTD=YEAR: 2018
EXTT0=
EXTT1=
EXTT2=
EXTT3=
EXTT4=
EXTT5=
EXTT6=
EXTT7=
EXTT8=
EXTT9=
EXTT10=
EXTT11=
EXTT12=
EXTT13=
EXTT14=
EXTT15=
PLAYORDER=
